<svg width="32" height="32" viewBox="0 0 32 32" fill="none" xmlns="http://www.w3.org/2000/svg">
<path d="M15.9999 4.2666C19.1879 4.2666 19.5856 4.27833 20.8364 4.337C22.086 4.39567 22.9367 4.59161 23.6853 4.8826C24.4597 5.18063 25.112 5.58425 25.7644 6.23545C26.3611 6.82201 26.8227 7.53151 27.1173 8.3146C27.4071 9.06202 27.6042 9.91386 27.6629 11.1635C27.718 12.4142 27.7333 12.812 27.7333 15.9999C27.7333 19.1879 27.7215 19.5856 27.6629 20.8364C27.6042 22.086 27.4071 22.9367 27.1173 23.6853C26.8236 24.4688 26.3618 25.1785 25.7644 25.7644C25.1777 26.3608 24.4683 26.8225 23.6853 27.1173C22.9379 27.4071 22.086 27.6042 20.8364 27.6629C19.5856 27.718 19.1879 27.7333 15.9999 27.7333C12.812 27.7333 12.4142 27.7215 11.1635 27.6629C9.91386 27.6042 9.06319 27.4071 8.3146 27.1173C7.53119 26.8233 6.82159 26.3616 6.23545 25.7644C5.63871 25.178 5.17703 24.4684 4.8826 23.6853C4.59161 22.9379 4.39567 22.086 4.337 20.8364C4.28185 19.5856 4.2666 19.1879 4.2666 15.9999C4.2666 12.812 4.27833 12.4142 4.337 11.1635C4.39567 9.91268 4.59161 9.06319 4.8826 8.3146C5.17621 7.53103 5.63801 6.82132 6.23545 6.23545C6.82175 5.63849 7.5313 5.17679 8.3146 4.8826C9.06319 4.59161 9.91268 4.39567 11.1635 4.337C12.4142 4.28185 12.812 4.2666 15.9999 4.2666ZM15.9999 10.1333C14.444 10.1333 12.9518 10.7513 11.8516 11.8516C10.7513 12.9518 10.1333 14.444 10.1333 15.9999C10.1333 17.5559 10.7513 19.0481 11.8516 20.1483C12.9518 21.2485 14.444 21.8666 15.9999 21.8666C17.5559 21.8666 19.0481 21.2485 20.1483 20.1483C21.2485 19.0481 21.8666 17.5559 21.8666 15.9999C21.8666 14.444 21.2485 12.9518 20.1483 11.8516C19.0481 10.7513 17.5559 10.1333 15.9999 10.1333ZM23.6266 9.83994C23.6266 9.45098 23.4721 9.07791 23.197 8.80287C22.922 8.52778 22.5489 8.37327 22.1599 8.37327C21.771 8.37327 21.3979 8.52778 21.1229 8.80287C20.8478 9.07791 20.6933 9.45098 20.6933 9.83994C20.6933 10.2289 20.8478 10.602 21.1229 10.877C21.3979 11.1521 21.771 11.3066 22.1599 11.3066C22.5489 11.3066 22.922 11.1521 23.197 10.877C23.4721 10.602 23.6266 10.2289 23.6266 9.83994ZM15.9999 12.4799C16.9335 12.4799 17.8288 12.8508 18.4889 13.5109C19.1491 14.171 19.5199 15.0664 19.5199 15.9999C19.5199 16.9335 19.1491 17.8288 18.4889 18.4889C17.8288 19.1491 16.9335 19.5199 15.9999 19.5199C15.0664 19.5199 14.171 19.1491 13.5109 18.4889C12.8508 17.8288 12.4799 16.9335 12.4799 15.9999C12.4799 15.0664 12.8508 14.171 13.5109 13.5109C14.171 12.8508 15.0664 12.4799 15.9999 12.4799Z" fill="black"/>
</svg>
