<svg width="32" height="32" viewBox="0 0 32 32" fill="none" xmlns="http://www.w3.org/2000/svg">
<path fill-rule="evenodd" clip-rule="evenodd" d="M4.59276 5.79961C4.90325 5.62127 5.2854 5.62255 5.59469 5.80297L21.5947 15.1363C21.9019 15.3155 22.0908 15.6444 22.0908 16.0001C22.0908 16.3558 21.9019 16.6847 21.5947 16.8639L5.59469 26.1972C5.2854 26.3776 4.90325 26.3789 4.59276 26.2005C4.28227 26.0222 4.09082 25.6915 4.09082 25.3334V6.66675C4.09082 6.30868 4.28227 5.97794 4.59276 5.79961ZM6.09082 8.40779V23.5924L19.1062 16.0001L6.09082 8.40779Z" fill="black"/>
<path fill-rule="evenodd" clip-rule="evenodd" d="M26.4243 5.66675C26.9766 5.66675 27.4243 6.11446 27.4243 6.66675V25.3334C27.4243 25.8857 26.9766 26.3334 26.4243 26.3334C25.872 26.3334 25.4243 25.8857 25.4243 25.3334V6.66675C25.4243 6.11446 25.872 5.66675 26.4243 5.66675Z" fill="black"/>
</svg>
