<svg width="32" height="32" viewBox="0 0 32 32" fill="none" xmlns="http://www.w3.org/2000/svg">
<path fill-rule="evenodd" clip-rule="evenodd" d="M27.1646 5.79936C27.4751 5.9777 27.6666 6.30844 27.6666 6.6665V25.3332C27.6666 25.6912 27.4751 26.022 27.1646 26.2003C26.8542 26.3787 26.472 26.3774 26.1627 26.197L10.1627 16.8636C9.8555 16.6844 9.66658 16.3555 9.66658 15.9999C9.66658 15.6442 9.8555 15.3153 10.1627 15.1361L26.1627 5.80273C26.472 5.62231 26.8542 5.62102 27.1646 5.79936ZM12.6512 15.9999L25.6666 23.5921V8.40754L12.6512 15.9999Z" fill="black"/>
<path fill-rule="evenodd" clip-rule="evenodd" d="M5.3335 5.6665C5.88578 5.6665 6.3335 6.11422 6.3335 6.6665V25.3332C6.3335 25.8855 5.88578 26.3332 5.3335 26.3332C4.78121 26.3332 4.3335 25.8855 4.3335 25.3332V6.6665C4.3335 6.11422 4.78121 5.6665 5.3335 5.6665Z" fill="black"/>
</svg>
