<svg width="32" height="32" viewBox="0 0 32 32" fill="none" xmlns="http://www.w3.org/2000/svg">
<path d="M15.9999 4.2666C9.5466 4.2666 4.2666 9.5466 4.2666 15.9999C4.2666 22.4533 9.5466 27.7333 15.9999 27.7333C22.4533 27.7333 27.7333 22.4533 27.7333 15.9999C27.7333 9.5466 22.5119 4.2666 15.9999 4.2666ZM20.3999 21.4559C17.6426 19.7546 14.1813 19.4026 10.0746 20.3413C9.66393 20.4586 9.31194 20.1653 9.1946 19.8133C9.07727 19.4026 9.3706 19.0506 9.7226 18.9333C14.1813 17.9359 18.0533 18.3466 21.1039 20.2239C21.5146 20.3999 21.5733 20.8693 21.3973 21.2213C21.1626 21.5733 20.7519 21.6906 20.3999 21.4559ZM21.5733 18.2879C18.4053 16.3519 13.5946 15.7653 9.8986 16.9386C9.42927 17.0559 8.90127 16.8213 8.78393 16.3519C8.6666 15.8826 8.90127 15.3546 9.3706 15.2373C13.6533 13.9466 18.9333 14.5919 22.5706 16.8213C22.9226 16.9973 23.0986 17.5839 22.8053 17.9946C22.5119 18.4053 21.9839 18.5813 21.5733 18.2879ZM9.31193 13.3599C8.72527 13.5359 8.1386 13.1839 7.9626 12.6559C7.7866 12.0693 8.1386 11.4826 8.6666 11.3066C12.8319 10.0746 19.6959 10.3093 24.0373 12.8906C24.5653 13.1839 24.7413 13.8879 24.4479 14.4159C24.1546 14.8266 23.4506 15.0026 22.9226 14.7093C19.1679 12.4799 12.8906 12.2453 9.31193 13.3599Z" fill="black"/>
</svg>
