<svg width="32" height="32" viewBox="0 0 32 32" fill="none" xmlns="http://www.w3.org/2000/svg">
<path d="M27.9988 8.37419C27.0999 8.78169 26.1468 9.04933 25.1707 9.16827C26.1995 8.53762 26.9694 7.54522 27.3371 6.37581C26.3717 6.96472 25.3132 7.37743 24.21 7.6007C23.4689 6.78806 22.4867 6.2491 21.416 6.06763C20.3453 5.88615 19.246 6.0723 18.2891 6.59724C17.3323 7.12211 16.5715 7.95628 16.1249 8.97008C15.6784 9.98388 15.5712 11.1205 15.8199 12.2032C13.862 12.1026 11.9466 11.5812 10.1981 10.6726C8.44965 9.76416 6.90718 8.48892 5.67072 6.92971C5.23312 7.70016 5.00307 8.576 5.00436 9.4675C5.00436 11.2173 5.87328 12.7632 7.19431 13.6682C6.41248 13.643 5.64792 13.4266 4.96428 13.0371V13.0999C4.96454 14.2652 5.35796 15.3946 6.07795 16.2966C6.79787 17.1986 7.80005 17.8176 8.91448 18.0487C8.18872 18.2503 7.42775 18.28 6.68921 18.1356C7.00338 19.1387 7.6158 20.016 8.44066 20.6446C9.26552 21.2732 10.2615 21.6217 11.2893 21.6412C10.2678 22.4634 9.09835 23.0712 7.84757 23.4298C6.59686 23.7885 5.28944 23.8909 4 23.7313C6.25083 25.2149 8.871 26.0026 11.5471 26C20.6048 26 25.5581 18.3094 25.5581 11.6397C25.5581 11.4224 25.5522 11.2029 25.5428 10.988C26.5069 10.2738 27.339 9.38911 28 8.37544L27.9988 8.37419Z" fill="black"/>
</svg>
